<svg xmlns="http://www.w3.org/2000/svg" xmlns:xlink="http://www.w3.org/1999/xlink" contentStyleType="text/css" data-diagram-type="ACTIVITY" height="591px" preserveAspectRatio="none" style="width:332px;height:591px;background:#FFFFFF;" version="1.1" viewBox="0 0 332 591" width="332px" zoomAndPan="magnify"><defs/><g><ellipse cx="157.6589" cy="20" fill="#222222" rx="10" ry="10" style="stroke:#222222;stroke-width:1;"/><rect fill="#F1F1F1" height="33.9688" rx="12.5" ry="12.5" style="stroke:#181818;stroke-width:0.5;" width="166.5664" x="74.3757" y="50"/><text fill="#000000" font-family="sans-serif" font-size="12" lengthAdjust="spacing" textLength="146.5664" x="84.3757" y="71.1387">Iterate over active loans</text><rect fill="#F1F1F1" height="33.9688" rx="12.5" ry="12.5" style="stroke:#181818;stroke-width:0.5;" width="112.6133" x="101.3523" y="103.9688"/><text fill="#000000" font-family="sans-serif" font-size="12" lengthAdjust="spacing" textLength="92.6133" x="111.3523" y="125.1074">Select one loan</text><rect fill="#F1F1F1" height="33.9688" rx="12.5" ry="12.5" style="stroke:#181818;stroke-width:0.5;" width="133.4492" x="90.9343" y="206.3398"/><text fill="#000000" font-family="sans-serif" font-size="12" lengthAdjust="spacing" textLength="113.4492" x="100.9343" y="227.4785">Compute days late</text><rect fill="#F1F1F1" height="33.9688" rx="12.5" ry="12.5" style="stroke:#181818;stroke-width:0.5;" width="154.3672" x="80.4753" y="260.3086"/><text fill="#000000" font-family="sans-serif" font-size="12" lengthAdjust="spacing" textLength="134.3672" x="90.4753" y="281.4473">amount = days &#215; rate</text><polygon fill="#F1F1F1" points="102.9678,314.2773,212.3501,314.2773,224.3501,326.2773,212.3501,338.2773,102.9678,338.2773,90.9678,326.2773,102.9678,314.2773" style="stroke:#181818;stroke-width:0.5;"/><text fill="#000000" font-family="sans-serif" font-size="11" lengthAdjust="spacing" textLength="109.3823" x="102.9678" y="330.0854">Fine already exists?</text><text fill="#000000" font-family="sans-serif" font-size="11" lengthAdjust="spacing" textLength="19.0083" x="71.9595" y="323.6831">yes</text><text fill="#000000" font-family="sans-serif" font-size="11" lengthAdjust="spacing" textLength="13.7017" x="224.3501" y="323.6831">no</text><rect fill="#F1F1F1" height="33.9688" rx="12.5" ry="12.5" style="stroke:#181818;stroke-width:0.5;" width="139.9355" x="11" y="348.2773"/><text fill="#000000" font-family="sans-serif" font-size="12" lengthAdjust="spacing" textLength="119.9355" x="21" y="369.416">Update fine amount</text><rect fill="#F1F1F1" height="47.9375" rx="12.5" ry="12.5" style="stroke:#181818;stroke-width:0.5;" width="115.6895" x="176.5054" y="348.2773"/><text fill="#000000" font-family="sans-serif" font-size="12" lengthAdjust="spacing" textLength="95.1152" x="186.5054" y="369.416">Create new fine</text><text fill="#000000" font-family="sans-serif" font-size="12" lengthAdjust="spacing" textLength="95.6895" x="186.5054" y="383.3848">status = unpaid</text><polygon fill="#F1F1F1" points="157.6589,402.2148,169.6589,414.2148,157.6589,426.2148,145.6589,414.2148,157.6589,402.2148" style="stroke:#181818;stroke-width:0.5;"/><rect fill="#F1F1F1" height="47.9375" rx="12.5" ry="12.5" style="stroke:#181818;stroke-width:0.5;" width="132.2422" x="91.5378" y="446.2148"/><text fill="#000000" font-family="sans-serif" font-size="12" lengthAdjust="spacing" textLength="112.2422" x="101.5378" y="467.3535">Send e&#8209;mail notice</text><text fill="#000000" font-family="sans-serif" font-size="12" lengthAdjust="spacing" textLength="66.5566" x="101.5378" y="481.3223">to member</text><polygon fill="#F1F1F1" points="120.4453,157.9375,194.8726,157.9375,206.8726,169.9375,194.8726,181.9375,120.4453,181.9375,108.4453,169.9375,120.4453,157.9375" style="stroke:#181818;stroke-width:0.5;"/><text fill="#000000" font-family="sans-serif" font-size="11" lengthAdjust="spacing" textLength="19.0083" x="161.6589" y="192.1479">yes</text><text fill="#000000" font-family="sans-serif" font-size="11" lengthAdjust="spacing" textLength="74.4272" x="120.4453" y="173.7456">Is it overdue?</text><polygon fill="#F1F1F1" points="157.6589,514.1523,169.6589,526.1523,157.6589,538.1523,145.6589,526.1523,157.6589,514.1523" style="stroke:#181818;stroke-width:0.5;"/><ellipse cx="157.6589" cy="569.1523" fill="none" rx="11" ry="11" style="stroke:#222222;stroke-width:1;"/><ellipse cx="157.6589" cy="569.1523" fill="#222222" rx="6" ry="6" style="stroke:#222222;stroke-width:1;"/><line style="stroke:#181818;stroke-width:1;" x1="157.6589" x2="157.6589" y1="30" y2="50"/><polygon fill="#181818" points="153.6589,40,157.6589,50,161.6589,40,157.6589,44" style="stroke:#181818;stroke-width:1;"/><line style="stroke:#181818;stroke-width:1;" x1="157.6589" x2="157.6589" y1="83.9688" y2="103.9688"/><polygon fill="#181818" points="153.6589,93.9688,157.6589,103.9688,161.6589,93.9688,157.6589,97.9688" style="stroke:#181818;stroke-width:1;"/><line style="stroke:#181818;stroke-width:1;" x1="157.6589" x2="157.6589" y1="240.3086" y2="260.3086"/><polygon fill="#181818" points="153.6589,250.3086,157.6589,260.3086,161.6589,250.3086,157.6589,254.3086" style="stroke:#181818;stroke-width:1;"/><line style="stroke:#181818;stroke-width:1;" x1="90.9678" x2="80.9678" y1="326.2773" y2="326.2773"/><line style="stroke:#181818;stroke-width:1;" x1="80.9678" x2="80.9678" y1="326.2773" y2="348.2773"/><polygon fill="#181818" points="76.9678,338.2773,80.9678,348.2773,84.9678,338.2773,80.9678,342.2773" style="stroke:#181818;stroke-width:1;"/><line style="stroke:#181818;stroke-width:1;" x1="224.3501" x2="234.3501" y1="326.2773" y2="326.2773"/><line style="stroke:#181818;stroke-width:1;" x1="234.3501" x2="234.3501" y1="326.2773" y2="348.2773"/><polygon fill="#181818" points="230.3501,338.2773,234.3501,348.2773,238.3501,338.2773,234.3501,342.2773" style="stroke:#181818;stroke-width:1;"/><line style="stroke:#181818;stroke-width:1;" x1="80.9678" x2="80.9678" y1="382.2461" y2="414.2148"/><line style="stroke:#181818;stroke-width:1;" x1="80.9678" x2="145.6589" y1="414.2148" y2="414.2148"/><polygon fill="#181818" points="135.6589,410.2148,145.6589,414.2148,135.6589,418.2148,139.6589,414.2148" style="stroke:#181818;stroke-width:1;"/><line style="stroke:#181818;stroke-width:1;" x1="234.3501" x2="234.3501" y1="396.2148" y2="414.2148"/><line style="stroke:#181818;stroke-width:1;" x1="234.3501" x2="169.6589" y1="414.2148" y2="414.2148"/><polygon fill="#181818" points="179.6589,410.2148,169.6589,414.2148,179.6589,418.2148,175.6589,414.2148" style="stroke:#181818;stroke-width:1;"/><line style="stroke:#181818;stroke-width:1;" x1="157.6589" x2="157.6589" y1="294.2773" y2="314.2773"/><polygon fill="#181818" points="153.6589,304.2773,157.6589,314.2773,161.6589,304.2773,157.6589,308.2773" style="stroke:#181818;stroke-width:1;"/><line style="stroke:#181818;stroke-width:1;" x1="157.6589" x2="157.6589" y1="426.2148" y2="446.2148"/><polygon fill="#181818" points="153.6589,436.2148,157.6589,446.2148,161.6589,436.2148,157.6589,440.2148" style="stroke:#181818;stroke-width:1;"/><line style="stroke:#181818;stroke-width:1;" x1="157.6589" x2="157.6589" y1="181.9375" y2="206.3398"/><polygon fill="#181818" points="153.6589,196.3398,157.6589,206.3398,161.6589,196.3398,157.6589,200.3398" style="stroke:#181818;stroke-width:1;"/><line style="stroke:#181818;stroke-width:1;" x1="206.8726" x2="306.1948" y1="169.9375" y2="169.9375"/><polygon fill="#181818" points="302.1948,332.7461,306.1948,342.7461,310.1948,332.7461,306.1948,336.7461" style="stroke:#181818;stroke-width:1;"/><line style="stroke:#181818;stroke-width:1;" x1="306.1948" x2="306.1948" y1="169.9375" y2="526.1523"/><line style="stroke:#181818;stroke-width:1;" x1="306.1948" x2="169.6589" y1="526.1523" y2="526.1523"/><polygon fill="#181818" points="179.6589,522.1523,169.6589,526.1523,179.6589,530.1523,175.6589,526.1523" style="stroke:#181818;stroke-width:1;"/><line style="stroke:#181818;stroke-width:1;" x1="157.6589" x2="157.6589" y1="494.1523" y2="514.1523"/><polygon fill="#181818" points="153.6589,504.1523,157.6589,514.1523,161.6589,504.1523,157.6589,508.1523" style="stroke:#181818;stroke-width:1;"/><line style="stroke:#181818;stroke-width:1;" x1="157.6589" x2="157.6589" y1="137.9375" y2="157.9375"/><polygon fill="#181818" points="153.6589,147.9375,157.6589,157.9375,161.6589,147.9375,157.6589,151.9375" style="stroke:#181818;stroke-width:1;"/><line style="stroke:#181818;stroke-width:1;" x1="157.6589" x2="157.6589" y1="538.1523" y2="558.1523"/><polygon fill="#181818" points="153.6589,548.1523,157.6589,558.1523,161.6589,548.1523,157.6589,552.1523" style="stroke:#181818;stroke-width:1;"/><!--SRC=[NOynRiCm34LtdOAZSmKRHOS01J8RtRgm5eq8a2b3f98QoD0hPCg1UfEUf9ISgPlmzVuZUODnEfClaJBSd2XcTVr9AQCIf8kbE6cu4CI4B8FhHueqAIJUey656RgJGD26-qAl1z0pCNGRoS41zCUqhCLq7ZU1QEAXfhYamWelU_ppWFpygSAtO7wCcT1lG5z1LFvhJV6- -hhctE2cgtsAGj1nUa97anZ4T6tW1zkHMiG65run-5PX7-Qwr6WleD_l-u8X0YSDapKqmKBB9-N1xQHeMly0]--></g></svg>