<svg xmlns="http://www.w3.org/2000/svg" xmlns:xlink="http://www.w3.org/1999/xlink" contentStyleType="text/css" data-diagram-type="SEQUENCE" height="428px" preserveAspectRatio="none" style="width:715px;height:428px;background:#FFFFFF;" version="1.1" viewBox="0 0 715 428" width="715px" zoomAndPan="magnify"><defs/><g><rect fill="none" height="206.7344" style="stroke:#000000;stroke-width:1.5;" width="698.6343" x="10" y="169.8281"/><g><title>Member</title><rect fill="#000000" fill-opacity="0.00000" height="357.2656" width="8" x="51.793" y="36.2969"/><line style="stroke:#181818;stroke-width:0.5;stroke-dasharray:5.0,5.0;" x1="55" x2="55" y1="36.2969" y2="393.5625"/></g><g><title>Librarian</title><rect fill="#000000" fill-opacity="0.00000" height="357.2656" width="8" x="241.124" y="36.2969"/><line style="stroke:#181818;stroke-width:0.5;stroke-dasharray:5.0,5.0;" x1="245.1196" x2="245.1196" y1="36.2969" y2="393.5625"/></g><g><title>Library&#160;System</title><rect fill="#000000" fill-opacity="0.00000" height="357.2656" width="8" x="441.7222" y="36.2969"/><line style="stroke:#181818;stroke-width:0.5;stroke-dasharray:5.0,5.0;" x1="444.918" x2="444.918" y1="36.2969" y2="393.5625"/></g><g><title>DB</title><rect fill="#000000" fill-opacity="0.00000" height="357.2656" width="8" x="677.4419" y="36.2969"/><line style="stroke:#181818;stroke-width:0.5;stroke-dasharray:5.0,5.0;" x1="681.2495" x2="681.2495" y1="36.2969" y2="393.5625"/></g><g class="participant participant-head" data-participant="Member"><rect fill="#E2E2F0" height="30.2969" rx="2.5" ry="2.5" style="stroke:#181818;stroke-width:0.5;" width="71.5859" x="20" y="5"/><text fill="#000000" font-family="sans-serif" font-size="14" lengthAdjust="spacing" textLength="57.5859" x="27" y="24.9951">Member</text></g><g class="participant participant-tail" data-participant="Member"><rect fill="#E2E2F0" height="30.2969" rx="2.5" ry="2.5" style="stroke:#181818;stroke-width:0.5;" width="71.5859" x="20" y="392.5625"/><text fill="#000000" font-family="sans-serif" font-size="14" lengthAdjust="spacing" textLength="57.5859" x="27" y="412.5576">Member</text></g><g class="participant participant-head" data-participant="Librarian"><rect fill="#E2E2F0" height="30.2969" rx="2.5" ry="2.5" style="stroke:#181818;stroke-width:0.5;" width="76.0088" x="207.1196" y="5"/><text fill="#000000" font-family="sans-serif" font-size="14" lengthAdjust="spacing" textLength="62.0088" x="214.1196" y="24.9951">Librarian</text></g><g class="participant participant-tail" data-participant="Librarian"><rect fill="#E2E2F0" height="30.2969" rx="2.5" ry="2.5" style="stroke:#181818;stroke-width:0.5;" width="76.0088" x="207.1196" y="392.5625"/><text fill="#000000" font-family="sans-serif" font-size="14" lengthAdjust="spacing" textLength="62.0088" x="214.1196" y="412.5576">Librarian</text></g><g class="participant participant-head" data-participant="App"><rect fill="#E2E2F0" height="30.2969" rx="2.5" ry="2.5" style="stroke:#181818;stroke-width:0.5;" width="119.6084" x="385.918" y="5"/><text fill="#000000" font-family="sans-serif" font-size="14" lengthAdjust="spacing" textLength="105.6084" x="392.918" y="24.9951">Library&#160;System</text></g><g class="participant participant-tail" data-participant="App"><rect fill="#E2E2F0" height="30.2969" rx="2.5" ry="2.5" style="stroke:#181818;stroke-width:0.5;" width="119.6084" x="385.918" y="392.5625"/><text fill="#000000" font-family="sans-serif" font-size="14" lengthAdjust="spacing" textLength="105.6084" x="392.918" y="412.5576">Library&#160;System</text></g><g class="participant participant-head" data-participant="DB"><rect fill="#E2E2F0" height="30.2969" rx="2.5" ry="2.5" style="stroke:#181818;stroke-width:0.5;" width="34.3848" x="664.2495" y="5"/><text fill="#000000" font-family="sans-serif" font-size="14" lengthAdjust="spacing" textLength="20.3848" x="671.2495" y="24.9951">DB</text></g><g class="participant participant-tail" data-participant="DB"><rect fill="#E2E2F0" height="30.2969" rx="2.5" ry="2.5" style="stroke:#181818;stroke-width:0.5;" width="34.3848" x="664.2495" y="392.5625"/><text fill="#000000" font-family="sans-serif" font-size="14" lengthAdjust="spacing" textLength="20.3848" x="671.2495" y="412.5576">DB</text></g><g class="message" data-participant-1="Member" data-participant-2="Librarian"><polygon fill="#181818" points="233.124,63.4297,243.124,67.4297,233.124,71.4297,237.124,67.4297" style="stroke:#181818;stroke-width:1;"/><line style="stroke:#181818;stroke-width:1;" x1="55.793" x2="239.124" y1="67.4297" y2="67.4297"/><text fill="#000000" font-family="sans-serif" font-size="13" lengthAdjust="spacing" textLength="161.0591" x="62.793" y="62.3638">Request to borrow(ISBN)</text></g><g class="message" data-participant-1="Librarian" data-participant-2="App"><polygon fill="#181818" points="433.7222,92.5625,443.7222,96.5625,433.7222,100.5625,437.7222,96.5625" style="stroke:#181818;stroke-width:1;"/><line style="stroke:#181818;stroke-width:1;" x1="245.124" x2="439.7222" y1="96.5625" y2="96.5625"/><text fill="#000000" font-family="sans-serif" font-size="13" lengthAdjust="spacing" textLength="176.5981" x="252.124" y="91.4966">lendBook(ISBN, memberId)</text></g><g class="message" data-participant-1="App" data-participant-2="DB"><polygon fill="#181818" points="669.4419,121.6953,679.4419,125.6953,669.4419,129.6953,673.4419,125.6953" style="stroke:#181818;stroke-width:1;"/><line style="stroke:#181818;stroke-width:1;" x1="445.7222" x2="675.4419" y1="125.6953" y2="125.6953"/><text fill="#000000" font-family="sans-serif" font-size="13" lengthAdjust="spacing" textLength="116.7651" x="452.7222" y="120.6294">lookupBook(ISBN)</text></g><g class="message" data-participant-1="DB" data-participant-2="App"><polygon fill="#181818" points="456.7222,150.8281,446.7222,154.8281,456.7222,158.8281,452.7222,154.8281" style="stroke:#181818;stroke-width:1;"/><line style="stroke:#181818;stroke-width:1;stroke-dasharray:2.0,2.0;" x1="450.7222" x2="680.4419" y1="154.8281" y2="154.8281"/><text fill="#000000" font-family="sans-serif" font-size="13" lengthAdjust="spacing" textLength="32.354" x="462.7222" y="149.7622">Book</text></g><path d="M10,169.8281 L74.4429,169.8281 L74.4429,176.9609 L64.4429,186.9609 L10,186.9609 L10,169.8281" fill="#EEEEEE" style="stroke:#000000;stroke-width:1.5;"/><rect fill="none" height="206.7344" style="stroke:#000000;stroke-width:1.5;" width="698.6343" x="10" y="169.8281"/><text fill="#000000" font-family="sans-serif" font-size="13" font-weight="bold" lengthAdjust="spacing" textLength="19.4429" x="25" y="182.895">alt</text><text fill="#000000" font-family="sans-serif" font-size="11" font-weight="bold" lengthAdjust="spacing" textLength="66.1396" x="89.4429" y="182.0386">[available]</text><g class="message" data-participant-1="App" data-participant-2="DB"><polygon fill="#181818" points="669.4419,204.0938,679.4419,208.0938,669.4419,212.0938,673.4419,208.0938" style="stroke:#181818;stroke-width:1;"/><line style="stroke:#181818;stroke-width:1;" x1="445.7222" x2="675.4419" y1="208.0938" y2="208.0938"/><text fill="#000000" font-family="sans-serif" font-size="13" lengthAdjust="spacing" textLength="211.7197" x="452.7222" y="203.0278">create Loan, update Book.status</text></g><g class="message" data-participant-1="DB" data-participant-2="App"><polygon fill="#181818" points="456.7222,233.2266,446.7222,237.2266,456.7222,241.2266,452.7222,237.2266" style="stroke:#181818;stroke-width:1;"/><line style="stroke:#181818;stroke-width:1;stroke-dasharray:2.0,2.0;" x1="450.7222" x2="680.4419" y1="237.2266" y2="237.2266"/><text fill="#000000" font-family="sans-serif" font-size="13" lengthAdjust="spacing" textLength="18.7573" x="462.7222" y="232.1606">OK</text></g><g class="message" data-participant-1="App" data-participant-2="Librarian"><polygon fill="#181818" points="256.124,262.3594,246.124,266.3594,256.124,270.3594,252.124,266.3594" style="stroke:#181818;stroke-width:1;"/><line style="stroke:#181818;stroke-width:1;stroke-dasharray:2.0,2.0;" x1="250.124" x2="444.7222" y1="266.3594" y2="266.3594"/><text fill="#000000" font-family="sans-serif" font-size="13" lengthAdjust="spacing" textLength="126.1851" x="262.124" y="261.2935">Confirm + dueDate</text></g><g class="message" data-participant-1="Librarian" data-participant-2="Member"><polygon fill="#181818" points="66.793,291.4922,56.793,295.4922,66.793,299.4922,62.793,295.4922" style="stroke:#181818;stroke-width:1;"/><line style="stroke:#181818;stroke-width:1;stroke-dasharray:2.0,2.0;" x1="60.793" x2="244.124" y1="295.4922" y2="295.4922"/><text fill="#000000" font-family="sans-serif" font-size="13" lengthAdjust="spacing" textLength="165.3311" x="72.793" y="290.4263">Success - due on &lt;date&gt;</text></g><line style="stroke:#000000;stroke-width:1;stroke-dasharray:2.0,2.0;" x1="10" x2="708.6343" y1="304.4922" y2="304.4922"/><text fill="#000000" font-family="sans-serif" font-size="11" font-weight="bold" lengthAdjust="spacing" textLength="90.6157" x="15" y="314.7026">[not available]</text><g class="message" data-participant-1="App" data-participant-2="Librarian"><polygon fill="#181818" points="256.124,335.4297,246.124,339.4297,256.124,343.4297,252.124,339.4297" style="stroke:#181818;stroke-width:1;"/><line style="stroke:#181818;stroke-width:1;stroke-dasharray:2.0,2.0;" x1="250.124" x2="444.7222" y1="339.4297" y2="339.4297"/><text fill="#000000" font-family="sans-serif" font-size="13" lengthAdjust="spacing" textLength="124.814" x="262.124" y="334.3638">Error: not available</text></g><g class="message" data-participant-1="Librarian" data-participant-2="Member"><polygon fill="#181818" points="66.793,364.5625,56.793,368.5625,66.793,372.5625,62.793,368.5625" style="stroke:#181818;stroke-width:1;"/><line style="stroke:#181818;stroke-width:1;stroke-dasharray:2.0,2.0;" x1="60.793" x2="244.124" y1="368.5625" y2="368.5625"/><text fill="#000000" font-family="sans-serif" font-size="13" lengthAdjust="spacing" textLength="56.8687" x="72.793" y="363.4966">Declined</text></g><!--SRC=[TP1DJiCm48NtFiLJLqGq7212bGXXKL508YUO98DauTZ6Fw3UXhDmCkmKI1kLsTdplVTcnf8BifUMTC03ZnqxOO- -Th9pv2JfazyRQq4UgqDt__NPxdtWSNK2DRKG1qUKcza85PxvBR8F20QTSSvyN6pR-h4GCvC4EIDL1SLwg8rvdQ0rniboEnGY4mbiQioLy8H6-oSeHEgNizylbW51Ae3UIIhg58lSM7fMw1rJOEmCwJMY7V8ZYwzye13zf5f6L7Ywd-qMszyQ_IBTY4iCaPjaDv57koV-vsuLsjZtx3tA3CDeNES1DeALPsXpTln5tbswiAlEmFz4DjmhgNaGwUxV]--></g></svg>