<svg xmlns="http://www.w3.org/2000/svg" xmlns:xlink="http://www.w3.org/1999/xlink" contentStyleType="text/css" data-diagram-type="DESCRIPTION" height="633px" preserveAspectRatio="none" style="width:305px;height:633px;background:#FFFFFF;" version="1.1" viewBox="0 0 305 633" width="305px" zoomAndPan="magnify"><defs/><g><!--cluster LIBRARY?SYSTEM--><g class="cluster" data-entity="LIBRARY&#160;SYSTEM" data-source-line="7" data-uid="ent0005" id="cluster_LIBRARY&#160;SYSTEM"><rect fill="none" height="620" rx="2.5" ry="2.5" style="stroke:#181818;stroke-width:1;" width="187.13" x="112.01" y="7"/><text fill="#000000" font-family="sans-serif" font-size="14" font-weight="bold" lengthAdjust="spacing" textLength="135.5566" x="137.7967" y="21.9951">LIBRARY&#160;SYSTEM</text></g><!--entity U1--><g class="entity" data-entity="U1" data-source-line="9" data-uid="ent0006" id="entity_U1"><ellipse cx="205.5774" cy="58.0035" fill="#F1F1F1" rx="70.0174" ry="16.4035" style="stroke:#181818;stroke-width:0.5;"/><text fill="#000000" font-family="sans-serif" font-size="14" lengthAdjust="spacing" textLength="106.4219" x="152.3664" y="62.6519">Add / edit book</text></g><!--entity U2--><g class="entity" data-entity="U2" data-source-line="10" data-uid="ent0007" id="entity_U2"><ellipse cx="205.5784" cy="322.9997" fill="#F1F1F1" rx="76.2984" ry="17.6597" style="stroke:#181818;stroke-width:0.5;"/><text fill="#000000" font-family="sans-serif" font-size="14" lengthAdjust="spacing" textLength="121.8643" x="144.6462" y="327.6481">Register member</text></g><!--entity U3--><g class="entity" data-entity="U3" data-source-line="11" data-uid="ent0008" id="entity_U3"><ellipse cx="205.5806" cy="256.0036" fill="#F1F1F1" rx="54.4406" ry="14.5236" style="stroke:#181818;stroke-width:0.5;"/><text fill="#000000" font-family="sans-serif" font-size="14" lengthAdjust="spacing" textLength="72.748" x="169.2066" y="260.6521">Lend book</text></g><!--entity U4--><g class="entity" data-entity="U4" data-source-line="12" data-uid="ent0009" id="entity_U4"><ellipse cx="205.5825" cy="192.0005" fill="#F1F1F1" rx="62.2025" ry="14.8405" style="stroke:#181818;stroke-width:0.5;"/><text fill="#000000" font-family="sans-serif" font-size="14" lengthAdjust="spacing" textLength="85.9072" x="162.6289" y="196.6489">Return book</text></g><!--entity U5--><g class="entity" data-entity="U5" data-source-line="13" data-uid="ent0010" id="entity_U5"><ellipse cx="205.5805" cy="126.0041" fill="#F1F1F1" rx="69.6705" ry="16.3341" style="stroke:#181818;stroke-width:0.5;"/><text fill="#000000" font-family="sans-serif" font-size="14" lengthAdjust="spacing" textLength="105.5469" x="152.8071" y="130.6525">Collect late fee</text></g><!--entity U6--><g class="entity" data-entity="U6" data-source-line="14" data-uid="ent0011" id="entity_U6"><ellipse cx="205.5775" cy="593.0035" fill="#F1F1F1" rx="77.5675" ry="17.9135" style="stroke:#181818;stroke-width:0.5;"/><text fill="#000000" font-family="sans-serif" font-size="14" lengthAdjust="spacing" textLength="124.9063" x="143.1244" y="597.6519">Browse catalogue</text></g><!--entity U7--><g class="entity" data-entity="U7" data-source-line="15" data-uid="ent0012" id="entity_U7"><ellipse cx="205.5808" cy="525.0022" fill="#F1F1F1" rx="65.7608" ry="15.5522" style="stroke:#181818;stroke-width:0.5;"/><text fill="#000000" font-family="sans-serif" font-size="14" lengthAdjust="spacing" textLength="95.4775" x="157.842" y="529.6506">Reserve book</text></g><!--entity U8--><g class="entity" data-entity="U8" data-source-line="16" data-uid="ent0013" id="entity_U8"><ellipse cx="205.582" cy="458.0004" fill="#F1F1F1" rx="68.102" ry="16.0204" style="stroke:#181818;stroke-width:0.5;"/><text fill="#000000" font-family="sans-serif" font-size="14" lengthAdjust="spacing" textLength="101.5547" x="154.8046" y="462.6488">View my loans</text></g><!--entity U9--><g class="entity" data-entity="U9" data-source-line="17" data-uid="ent0014" id="entity_U9"><ellipse cx="205.5833" cy="391.0027" fill="#F1F1F1" rx="66.0133" ry="15.6027" style="stroke:#181818;stroke-width:0.5;"/><text fill="#000000" font-family="sans-serif" font-size="14" lengthAdjust="spacing" textLength="96.1406" x="157.513" y="395.6511">Calculate fine</text></g><!--entity Librarian--><g class="entity" data-entity="Librarian" data-source-line="3" data-uid="ent0002" id="entity_Librarian"><ellipse cx="37.0044" cy="194.35" fill="#F1F1F1" rx="8" ry="8" style="stroke:#181818;stroke-width:0.5;"/><path d="M37.0044,202.35 L37.0044,229.35 M24.0044,210.35 L50.0044,210.35 M37.0044,229.35 L24.0044,244.35 M37.0044,229.35 L50.0044,244.35" fill="none" style="stroke:#181818;stroke-width:0.5;"/><text fill="#000000" font-family="sans-serif" font-size="14" lengthAdjust="spacing" textLength="62.0088" x="6" y="258.8451">Librarian</text></g><!--entity Member--><g class="entity" data-entity="Member" data-source-line="4" data-uid="ent0003" id="entity_Member"><ellipse cx="37.003" cy="495.35" fill="#F1F1F1" rx="8" ry="8" style="stroke:#181818;stroke-width:0.5;"/><path d="M37.003,503.35 L37.003,530.35 M24.003,511.35 L50.003,511.35 M37.003,530.35 L24.003,545.35 M37.003,530.35 L50.003,545.35" fill="none" style="stroke:#181818;stroke-width:0.5;"/><text fill="#000000" font-family="sans-serif" font-size="14" lengthAdjust="spacing" textLength="57.5859" x="8.21" y="559.8451">Member</text></g><!--entity Scheduler--><g class="entity" data-entity="Scheduler" data-source-line="5" data-uid="ent0004" id="entity_Scheduler"><ellipse cx="37.003" cy="361.35" fill="#F1F1F1" rx="8" ry="8" style="stroke:#181818;stroke-width:0.5;"/><path d="M37.003,369.35 L37.003,396.35 M24.003,377.35 L50.003,377.35 M37.003,396.35 L24.003,411.35 M37.003,396.35 L50.003,411.35" fill="none" style="stroke:#181818;stroke-width:0.5;"/><text fill="#000000" font-family="sans-serif" font-size="14" lengthAdjust="spacing" textLength="52.2061" x="10.9" y="425.8451">System</text></g><!--link Librarian to U1--><g class="link" data-entity-1="Librarian" data-entity-2="U1" data-source-line="21" data-uid="lnk15" id="link_Librarian_U1"><path d="M48.47,185.44 C58.3,156.05 75.8,116.57 104.01,92 C116.86,80.8 133.56,73.26 149.64,68.19" fill="none" id="Librarian-U1" style="stroke:#181818;stroke-width:1;"/></g><!--link Librarian to U2--><g class="link" data-entity-1="Librarian" data-entity-2="U2" data-source-line="22" data-uid="lnk16" id="link_Librarian_U2"><path d="M68.5,258.99 C78.95,269.41 91.24,280.13 104.01,288 C118.96,297.22 136.66,304.41 153.02,309.82" fill="none" id="Librarian-U2" style="stroke:#181818;stroke-width:1;"/></g><!--link Librarian to U3--><g class="link" data-entity-1="Librarian" data-entity-2="U3" data-source-line="23" data-uid="lnk17" id="link_Librarian_U3"><path d="M68.17,229.79 C93.95,234.75 131.39,241.94 160.52,247.54" fill="none" id="Librarian-U3" style="stroke:#181818;stroke-width:1;"/></g><!--link Librarian to U4--><g class="link" data-entity-1="Librarian" data-entity-2="U4" data-source-line="24" data-uid="lnk18" id="link_Librarian_U4"><path d="M68.17,218.21 C92.64,213.5 127.61,206.79 156.01,201.33" fill="none" id="Librarian-U4" style="stroke:#181818;stroke-width:1;"/></g><!--link Librarian to U5--><g class="link" data-entity-1="Librarian" data-entity-2="U5" data-source-line="25" data-uid="lnk19" id="link_Librarian_U5"><path d="M68.46,188.94 C78.9,178.52 91.2,167.82 104.01,160 C119.74,150.4 138.53,143.11 155.58,137.79" fill="none" id="Librarian-U5" style="stroke:#181818;stroke-width:1;"/></g><!--link Member to U6--><g class="link" data-entity-1="Member" data-entity-2="U6" data-source-line="27" data-uid="lnk20" id="link_Member_U6"><path d="M66.22,540.11 C77.78,546.03 91.38,552.67 104.01,558 C121.55,565.4 141.26,572.51 158.55,578.37" fill="none" id="Member-U6" style="stroke:#181818;stroke-width:1;"/></g><!--link Member to U7--><g class="link" data-entity-1="Member" data-entity-2="U7" data-source-line="28" data-uid="lnk21" id="link_Member_U7"><path d="M66.26,525 C86.31,525 114.06,525 139.44,525" fill="none" id="Member-U7" style="stroke:#181818;stroke-width:1;"/></g><!--link Member to U8--><g class="link" data-entity-1="Member" data-entity-2="U8" data-source-line="29" data-uid="lnk22" id="link_Member_U8"><path d="M66.2,509.83 C77.75,503.9 91.36,497.27 104.01,492 C122.89,484.13 144.31,476.69 162.51,470.79" fill="none" id="Member-U8" style="stroke:#181818;stroke-width:1;"/></g><!--link Librarian to U9--><g class="link" data-entity-1="Librarian" data-entity-2="U9" data-source-line="31" data-uid="lnk23" id="link_Librarian_U9"><path d="M48.06,262.6 C57.73,292.53 75.23,333 104.01,358 C117.19,369.45 134.44,376.94 150.92,381.84" fill="none" id="Librarian-U9" style="stroke:#181818;stroke-width:1;"/></g><!--link Scheduler to U9--><g class="link" data-entity-1="Scheduler" data-entity-2="U9" data-source-line="32" data-uid="lnk24" id="link_Scheduler_U9"><path d="M63.3,391 C83.51,391 112.75,391 139.4,391" fill="none" id="Scheduler-U9" style="stroke:#181818;stroke-width:1;"/></g><!--SRC=[PP5BJiCm48RtSufHDf15XEYxonQnG4et2I1rwSJJnCAnaUrGLOYxS1PEHfnKv85tdx-P-IsFf9D3fz68edJ8XQ7S2Qq0MEwqmLXaXXd1r9KFL6Lahf3c9V5Qaa5cCKWlrb4L0FWHJ1MIC8YVziakEVvyfyVq-V4Gu2S0uksESxn3ui9XflLRYDrffhpSUvzG8PfX1gisRkXdtiUa-AYpz_EktzL6_QlmVk7zWvQoUIHAvWXFH67lbzxlZJvRmfmv9dLH3_sgcs_9VD0qmFkrzw-2pbXTK6gcR3ZocpQVoRpkmeMYSEYty0LmWr4KeQ6cfDc5BSMxzJVmjus6_5UDUJRX-OGN4ru2TEjiQJM4zH0sC6dSGh_vbdy1]--></g></svg>